<mxfile host="app.diagrams.net" modified="2023-05-15T16:51:00.474Z" agent="Mozilla/5.0 (Macintosh; Intel Mac OS X 10_15_7) AppleWebKit/537.36 (KHTML, like Gecko) Chrome/112.0.0.0 Safari/537.36" etag="bDPKHw8mKWrkjDnCLZG4" version="21.3.0" type="device" pages="6">
  <diagram name="페이지-1" id="mM5jWS1aBvPiYIuouBjk">
    <mxGraphModel dx="1478" dy="1043" grid="1" gridSize="10" guides="1" tooltips="1" connect="1" arrows="1" fold="1" page="1" pageScale="1" pageWidth="1169" pageHeight="827" math="0" shadow="0">
      <root>
        <mxCell id="0" />
        <mxCell id="1" parent="0" />
        <mxCell id="JKX_STOdbQNvTR0vgtwM-26" value="" style="rounded=0;whiteSpace=wrap;html=1;strokeColor=none;fillColor=#E0E0E0;" vertex="1" parent="1">
          <mxGeometry x="170" y="450" width="400" height="30" as="geometry" />
        </mxCell>
        <mxCell id="JKX_STOdbQNvTR0vgtwM-1" value="" style="rounded=0;whiteSpace=wrap;html=1;" vertex="1" parent="1">
          <mxGeometry x="170" y="480" width="40" height="40" as="geometry" />
        </mxCell>
        <mxCell id="JKX_STOdbQNvTR0vgtwM-2" value="" style="rounded=0;whiteSpace=wrap;html=1;" vertex="1" parent="1">
          <mxGeometry x="210" y="480" width="40" height="40" as="geometry" />
        </mxCell>
        <mxCell id="JKX_STOdbQNvTR0vgtwM-3" value="" style="rounded=0;whiteSpace=wrap;html=1;" vertex="1" parent="1">
          <mxGeometry x="250" y="480" width="40" height="40" as="geometry" />
        </mxCell>
        <mxCell id="JKX_STOdbQNvTR0vgtwM-4" value="" style="rounded=0;whiteSpace=wrap;html=1;" vertex="1" parent="1">
          <mxGeometry x="290" y="480" width="40" height="40" as="geometry" />
        </mxCell>
        <mxCell id="JKX_STOdbQNvTR0vgtwM-5" value="" style="rounded=0;whiteSpace=wrap;html=1;" vertex="1" parent="1">
          <mxGeometry x="330" y="480" width="40" height="40" as="geometry" />
        </mxCell>
        <mxCell id="JKX_STOdbQNvTR0vgtwM-6" value="" style="rounded=0;whiteSpace=wrap;html=1;" vertex="1" parent="1">
          <mxGeometry x="370" y="480" width="40" height="40" as="geometry" />
        </mxCell>
        <mxCell id="JKX_STOdbQNvTR0vgtwM-7" value="" style="rounded=0;whiteSpace=wrap;html=1;" vertex="1" parent="1">
          <mxGeometry x="410" y="480" width="40" height="40" as="geometry" />
        </mxCell>
        <mxCell id="JKX_STOdbQNvTR0vgtwM-8" value="" style="rounded=0;whiteSpace=wrap;html=1;" vertex="1" parent="1">
          <mxGeometry x="450" y="480" width="40" height="40" as="geometry" />
        </mxCell>
        <mxCell id="JKX_STOdbQNvTR0vgtwM-9" value="" style="rounded=0;whiteSpace=wrap;html=1;" vertex="1" parent="1">
          <mxGeometry x="490" y="480" width="40" height="40" as="geometry" />
        </mxCell>
        <mxCell id="JKX_STOdbQNvTR0vgtwM-10" value="" style="rounded=0;whiteSpace=wrap;html=1;" vertex="1" parent="1">
          <mxGeometry x="530" y="480" width="40" height="40" as="geometry" />
        </mxCell>
        <mxCell id="JKX_STOdbQNvTR0vgtwM-11" value="0" style="text;html=1;strokeColor=none;fillColor=none;align=center;verticalAlign=middle;whiteSpace=wrap;rounded=0;" vertex="1" parent="1">
          <mxGeometry x="180" y="450" width="20" height="30" as="geometry" />
        </mxCell>
        <mxCell id="JKX_STOdbQNvTR0vgtwM-12" value="1" style="text;html=1;strokeColor=none;fillColor=none;align=center;verticalAlign=middle;whiteSpace=wrap;rounded=0;" vertex="1" parent="1">
          <mxGeometry x="210" y="450" width="40" height="30" as="geometry" />
        </mxCell>
        <mxCell id="JKX_STOdbQNvTR0vgtwM-13" value="2" style="text;html=1;strokeColor=none;fillColor=none;align=center;verticalAlign=middle;whiteSpace=wrap;rounded=0;" vertex="1" parent="1">
          <mxGeometry x="250" y="450" width="40" height="30" as="geometry" />
        </mxCell>
        <mxCell id="JKX_STOdbQNvTR0vgtwM-14" value="3" style="text;html=1;strokeColor=none;fillColor=none;align=center;verticalAlign=middle;whiteSpace=wrap;rounded=0;" vertex="1" parent="1">
          <mxGeometry x="290" y="450" width="40" height="30" as="geometry" />
        </mxCell>
        <mxCell id="JKX_STOdbQNvTR0vgtwM-15" value="4" style="text;html=1;strokeColor=none;fillColor=none;align=center;verticalAlign=middle;whiteSpace=wrap;rounded=0;" vertex="1" parent="1">
          <mxGeometry x="330" y="450" width="40" height="30" as="geometry" />
        </mxCell>
        <mxCell id="JKX_STOdbQNvTR0vgtwM-16" value="5" style="text;html=1;strokeColor=none;fillColor=none;align=center;verticalAlign=middle;whiteSpace=wrap;rounded=0;" vertex="1" parent="1">
          <mxGeometry x="370" y="450" width="40" height="30" as="geometry" />
        </mxCell>
        <mxCell id="JKX_STOdbQNvTR0vgtwM-17" value="6" style="text;html=1;strokeColor=none;fillColor=none;align=center;verticalAlign=middle;whiteSpace=wrap;rounded=0;" vertex="1" parent="1">
          <mxGeometry x="410" y="450" width="40" height="30" as="geometry" />
        </mxCell>
        <mxCell id="JKX_STOdbQNvTR0vgtwM-18" value="7" style="text;html=1;strokeColor=none;fillColor=none;align=center;verticalAlign=middle;whiteSpace=wrap;rounded=0;" vertex="1" parent="1">
          <mxGeometry x="450" y="450" width="40" height="30" as="geometry" />
        </mxCell>
        <mxCell id="JKX_STOdbQNvTR0vgtwM-19" value="8" style="text;html=1;strokeColor=none;fillColor=none;align=center;verticalAlign=middle;whiteSpace=wrap;rounded=0;" vertex="1" parent="1">
          <mxGeometry x="490" y="450" width="40" height="30" as="geometry" />
        </mxCell>
        <mxCell id="JKX_STOdbQNvTR0vgtwM-20" value="9" style="text;html=1;strokeColor=none;fillColor=none;align=center;verticalAlign=middle;whiteSpace=wrap;rounded=0;" vertex="1" parent="1">
          <mxGeometry x="530" y="450" width="40" height="30" as="geometry" />
        </mxCell>
        <mxCell id="JKX_STOdbQNvTR0vgtwM-21" value="First index" style="text;html=1;strokeColor=none;fillColor=none;align=center;verticalAlign=middle;whiteSpace=wrap;rounded=0;" vertex="1" parent="1">
          <mxGeometry x="160" y="399" width="60" height="21" as="geometry" />
        </mxCell>
        <mxCell id="JKX_STOdbQNvTR0vgtwM-22" value="" style="endArrow=classic;html=1;rounded=0;exitX=0.5;exitY=1;exitDx=0;exitDy=0;entryX=0.5;entryY=0;entryDx=0;entryDy=0;" edge="1" parent="1" source="JKX_STOdbQNvTR0vgtwM-21" target="JKX_STOdbQNvTR0vgtwM-11">
          <mxGeometry width="50" height="50" relative="1" as="geometry">
            <mxPoint x="290" y="410" as="sourcePoint" />
            <mxPoint x="340" y="360" as="targetPoint" />
          </mxGeometry>
        </mxCell>
        <mxCell id="JKX_STOdbQNvTR0vgtwM-23" value="Element&lt;br&gt;(at index 8)" style="text;html=1;strokeColor=none;fillColor=none;align=center;verticalAlign=middle;whiteSpace=wrap;rounded=0;" vertex="1" parent="1">
          <mxGeometry x="435" y="399" width="70" height="30" as="geometry" />
        </mxCell>
        <mxCell id="JKX_STOdbQNvTR0vgtwM-24" value="" style="endArrow=classic;html=1;rounded=0;entryX=0.5;entryY=1;entryDx=0;entryDy=0;exitX=0.5;exitY=1;exitDx=0;exitDy=0;" edge="1" parent="1" source="JKX_STOdbQNvTR0vgtwM-23" target="JKX_STOdbQNvTR0vgtwM-19">
          <mxGeometry width="50" height="50" relative="1" as="geometry">
            <mxPoint x="450" y="340" as="sourcePoint" />
            <mxPoint x="510" y="520" as="targetPoint" />
          </mxGeometry>
        </mxCell>
        <mxCell id="JKX_STOdbQNvTR0vgtwM-25" value="Indices" style="text;html=1;strokeColor=none;fillColor=none;align=center;verticalAlign=middle;whiteSpace=wrap;rounded=0;" vertex="1" parent="1">
          <mxGeometry x="570" y="450" width="60" height="30" as="geometry" />
        </mxCell>
        <mxCell id="JKX_STOdbQNvTR0vgtwM-28" value="" style="endArrow=none;html=1;rounded=0;entryX=0;entryY=1;entryDx=0;entryDy=0;" edge="1" parent="1" target="JKX_STOdbQNvTR0vgtwM-1">
          <mxGeometry width="50" height="50" relative="1" as="geometry">
            <mxPoint x="170" y="560" as="sourcePoint" />
            <mxPoint x="330" y="640" as="targetPoint" />
          </mxGeometry>
        </mxCell>
        <mxCell id="JKX_STOdbQNvTR0vgtwM-29" value="" style="endArrow=none;html=1;rounded=0;entryX=1;entryY=1;entryDx=0;entryDy=0;" edge="1" parent="1" target="JKX_STOdbQNvTR0vgtwM-10">
          <mxGeometry width="50" height="50" relative="1" as="geometry">
            <mxPoint x="570" y="560" as="sourcePoint" />
            <mxPoint x="180" y="530" as="targetPoint" />
          </mxGeometry>
        </mxCell>
        <mxCell id="JKX_STOdbQNvTR0vgtwM-30" value="Array length is 10" style="endArrow=classic;startArrow=classic;html=1;rounded=0;" edge="1" parent="1">
          <mxGeometry width="50" height="50" relative="1" as="geometry">
            <mxPoint x="170" y="550" as="sourcePoint" />
            <mxPoint x="570" y="550" as="targetPoint" />
          </mxGeometry>
        </mxCell>
      </root>
    </mxGraphModel>
  </diagram>
  <diagram id="RM_tsZsPcl_7Axtk-9S5" name="페이지-2">
    <mxGraphModel dx="636" dy="719" grid="1" gridSize="10" guides="1" tooltips="1" connect="1" arrows="1" fold="1" page="1" pageScale="1" pageWidth="1169" pageHeight="827" math="0" shadow="0">
      <root>
        <mxCell id="0" />
        <mxCell id="1" parent="0" />
        <mxCell id="hBXAGBGiyZsWKRYlU5R_-2" value="type" style="text;html=1;strokeColor=none;fillColor=none;align=center;verticalAlign=middle;whiteSpace=wrap;rounded=0;fontSize=20;fontStyle=1" vertex="1" parent="1">
          <mxGeometry x="200" y="210" width="50" height="30" as="geometry" />
        </mxCell>
        <mxCell id="hBXAGBGiyZsWKRYlU5R_-3" value="[]" style="text;html=1;strokeColor=none;fillColor=none;align=center;verticalAlign=middle;whiteSpace=wrap;rounded=0;fontSize=20;fontStyle=1" vertex="1" parent="1">
          <mxGeometry x="250" y="210" width="30" height="30" as="geometry" />
        </mxCell>
        <mxCell id="hBXAGBGiyZsWKRYlU5R_-4" value="name;" style="text;html=1;strokeColor=none;fillColor=none;align=center;verticalAlign=middle;whiteSpace=wrap;rounded=0;fontSize=20;fontStyle=1" vertex="1" parent="1">
          <mxGeometry x="280" y="210" width="70" height="30" as="geometry" />
        </mxCell>
        <mxCell id="hBXAGBGiyZsWKRYlU5R_-5" value="" style="shape=curlyBracket;whiteSpace=wrap;html=1;rounded=1;labelPosition=left;verticalLabelPosition=middle;align=right;verticalAlign=middle;rotation=-90;" vertex="1" parent="1">
          <mxGeometry x="215" y="225" width="20" height="50" as="geometry" />
        </mxCell>
        <mxCell id="hBXAGBGiyZsWKRYlU5R_-6" value="" style="shape=curlyBracket;whiteSpace=wrap;html=1;rounded=1;labelPosition=left;verticalLabelPosition=middle;align=right;verticalAlign=middle;rotation=-90;" vertex="1" parent="1">
          <mxGeometry x="255" y="241.25" width="20" height="17.5" as="geometry" />
        </mxCell>
        <mxCell id="hBXAGBGiyZsWKRYlU5R_-7" value="" style="shape=curlyBracket;whiteSpace=wrap;html=1;rounded=1;labelPosition=left;verticalLabelPosition=middle;align=right;verticalAlign=middle;rotation=-90;" vertex="1" parent="1">
          <mxGeometry x="301.25" y="221.25" width="20" height="57.5" as="geometry" />
        </mxCell>
        <mxCell id="hBXAGBGiyZsWKRYlU5R_-8" value="data type" style="text;html=1;strokeColor=none;fillColor=none;align=center;verticalAlign=middle;whiteSpace=wrap;rounded=0;" vertex="1" parent="1">
          <mxGeometry x="360" y="310" width="60" height="20" as="geometry" />
        </mxCell>
        <mxCell id="hBXAGBGiyZsWKRYlU5R_-9" value="배열 기호" style="text;html=1;strokeColor=none;fillColor=none;align=center;verticalAlign=middle;whiteSpace=wrap;rounded=0;" vertex="1" parent="1">
          <mxGeometry x="360" y="290" width="60" height="20" as="geometry" />
        </mxCell>
        <mxCell id="hBXAGBGiyZsWKRYlU5R_-10" value="배열 이름" style="text;html=1;strokeColor=none;fillColor=none;align=center;verticalAlign=middle;whiteSpace=wrap;rounded=0;" vertex="1" parent="1">
          <mxGeometry x="360" y="270" width="60" height="20" as="geometry" />
        </mxCell>
        <mxCell id="hBXAGBGiyZsWKRYlU5R_-11" value="" style="endArrow=classic;html=1;rounded=0;entryX=0.1;entryY=0.5;entryDx=0;entryDy=0;entryPerimeter=0;exitX=0;exitY=0.5;exitDx=0;exitDy=0;" edge="1" parent="1" source="hBXAGBGiyZsWKRYlU5R_-10" target="hBXAGBGiyZsWKRYlU5R_-7">
          <mxGeometry width="50" height="50" relative="1" as="geometry">
            <mxPoint x="310" y="480" as="sourcePoint" />
            <mxPoint x="360" y="430" as="targetPoint" />
            <Array as="points">
              <mxPoint x="311" y="280" />
            </Array>
          </mxGeometry>
        </mxCell>
        <mxCell id="hBXAGBGiyZsWKRYlU5R_-12" value="" style="endArrow=classic;html=1;rounded=0;entryX=0.1;entryY=0.5;entryDx=0;entryDy=0;entryPerimeter=0;exitX=0;exitY=0.5;exitDx=0;exitDy=0;" edge="1" parent="1" source="hBXAGBGiyZsWKRYlU5R_-9" target="hBXAGBGiyZsWKRYlU5R_-6">
          <mxGeometry width="50" height="50" relative="1" as="geometry">
            <mxPoint x="370" y="293" as="sourcePoint" />
            <mxPoint x="341" y="268" as="targetPoint" />
            <Array as="points">
              <mxPoint x="265" y="300" />
            </Array>
          </mxGeometry>
        </mxCell>
        <mxCell id="hBXAGBGiyZsWKRYlU5R_-13" value="" style="endArrow=classic;html=1;rounded=0;entryX=0.1;entryY=0.5;entryDx=0;entryDy=0;entryPerimeter=0;exitX=0;exitY=0.5;exitDx=0;exitDy=0;" edge="1" parent="1" source="hBXAGBGiyZsWKRYlU5R_-8" target="hBXAGBGiyZsWKRYlU5R_-5">
          <mxGeometry width="50" height="50" relative="1" as="geometry">
            <mxPoint x="370" y="315" as="sourcePoint" />
            <mxPoint x="283" y="268" as="targetPoint" />
            <Array as="points">
              <mxPoint x="225" y="320" />
            </Array>
          </mxGeometry>
        </mxCell>
        <mxCell id="hBXAGBGiyZsWKRYlU5R_-14" value="type" style="text;html=1;strokeColor=none;fillColor=none;align=center;verticalAlign=middle;whiteSpace=wrap;rounded=0;fontSize=20;fontStyle=1" vertex="1" parent="1">
          <mxGeometry x="438" y="210" width="50" height="30" as="geometry" />
        </mxCell>
        <mxCell id="hBXAGBGiyZsWKRYlU5R_-15" value="[]" style="text;html=1;strokeColor=none;fillColor=none;align=center;verticalAlign=middle;whiteSpace=wrap;rounded=0;fontSize=20;fontStyle=1" vertex="1" parent="1">
          <mxGeometry x="549.25" y="210" width="30" height="30" as="geometry" />
        </mxCell>
        <mxCell id="hBXAGBGiyZsWKRYlU5R_-16" value="name" style="text;html=1;strokeColor=none;fillColor=none;align=center;verticalAlign=middle;whiteSpace=wrap;rounded=0;fontSize=20;fontStyle=1" vertex="1" parent="1">
          <mxGeometry x="488" y="210" width="70" height="30" as="geometry" />
        </mxCell>
        <mxCell id="hBXAGBGiyZsWKRYlU5R_-17" value=";" style="text;html=1;strokeColor=none;fillColor=none;align=center;verticalAlign=middle;whiteSpace=wrap;rounded=0;fontSize=20;fontStyle=1" vertex="1" parent="1">
          <mxGeometry x="574.25" y="211.25" width="10" height="30" as="geometry" />
        </mxCell>
        <mxCell id="hBXAGBGiyZsWKRYlU5R_-19" value="" style="shape=curlyBracket;whiteSpace=wrap;html=1;rounded=1;labelPosition=left;verticalLabelPosition=middle;align=right;verticalAlign=middle;rotation=-90;" vertex="1" parent="1">
          <mxGeometry x="513" y="221.25" width="20" height="57.5" as="geometry" />
        </mxCell>
        <mxCell id="hBXAGBGiyZsWKRYlU5R_-20" value="" style="shape=curlyBracket;whiteSpace=wrap;html=1;rounded=1;labelPosition=left;verticalLabelPosition=middle;align=right;verticalAlign=middle;rotation=-90;" vertex="1" parent="1">
          <mxGeometry x="453" y="225" width="20" height="50" as="geometry" />
        </mxCell>
        <mxCell id="hBXAGBGiyZsWKRYlU5R_-21" value="" style="shape=curlyBracket;whiteSpace=wrap;html=1;rounded=1;labelPosition=left;verticalLabelPosition=middle;align=right;verticalAlign=middle;rotation=-90;" vertex="1" parent="1">
          <mxGeometry x="554.25" y="241.25" width="20" height="17.5" as="geometry" />
        </mxCell>
        <mxCell id="hBXAGBGiyZsWKRYlU5R_-23" value="" style="endArrow=classic;html=1;rounded=0;entryX=0.1;entryY=0.5;entryDx=0;entryDy=0;entryPerimeter=0;exitX=1;exitY=0.5;exitDx=0;exitDy=0;" edge="1" parent="1" source="hBXAGBGiyZsWKRYlU5R_-10" target="hBXAGBGiyZsWKRYlU5R_-20">
          <mxGeometry width="50" height="50" relative="1" as="geometry">
            <mxPoint x="370" y="290" as="sourcePoint" />
            <mxPoint x="321" y="268" as="targetPoint" />
            <Array as="points">
              <mxPoint x="463" y="280" />
            </Array>
          </mxGeometry>
        </mxCell>
        <mxCell id="hBXAGBGiyZsWKRYlU5R_-24" value="" style="endArrow=classic;html=1;rounded=0;entryX=0.1;entryY=0.5;entryDx=0;entryDy=0;entryPerimeter=0;exitX=1;exitY=0.5;exitDx=0;exitDy=0;" edge="1" parent="1" source="hBXAGBGiyZsWKRYlU5R_-9" target="hBXAGBGiyZsWKRYlU5R_-19">
          <mxGeometry width="50" height="50" relative="1" as="geometry">
            <mxPoint x="430" y="290" as="sourcePoint" />
            <mxPoint x="473" y="268" as="targetPoint" />
            <Array as="points">
              <mxPoint x="523" y="300" />
            </Array>
          </mxGeometry>
        </mxCell>
        <mxCell id="hBXAGBGiyZsWKRYlU5R_-25" value="" style="endArrow=classic;html=1;rounded=0;entryX=0.1;entryY=0.5;entryDx=0;entryDy=0;entryPerimeter=0;exitX=1;exitY=0.5;exitDx=0;exitDy=0;" edge="1" parent="1" source="hBXAGBGiyZsWKRYlU5R_-8" target="hBXAGBGiyZsWKRYlU5R_-21">
          <mxGeometry width="50" height="50" relative="1" as="geometry">
            <mxPoint x="430" y="310" as="sourcePoint" />
            <mxPoint x="533" y="268" as="targetPoint" />
            <Array as="points">
              <mxPoint x="564" y="320" />
            </Array>
          </mxGeometry>
        </mxCell>
      </root>
    </mxGraphModel>
  </diagram>
  <diagram id="sF6CHYK75pBODQlYZD-q" name="페이지-3">
    <mxGraphModel dx="2060" dy="1043" grid="1" gridSize="10" guides="1" tooltips="1" connect="1" arrows="1" fold="1" page="1" pageScale="1" pageWidth="1169" pageHeight="827" math="0" shadow="0">
      <root>
        <mxCell id="0" />
        <mxCell id="1" parent="0" />
        <mxCell id="qq0QSqFWVWA5eUmxQ3MX-12" value="" style="rounded=1;whiteSpace=wrap;html=1;fillColor=#f5f5f5;fontColor=#333333;strokeColor=#666666;" vertex="1" parent="1">
          <mxGeometry x="120" y="160" width="320" height="280" as="geometry" />
        </mxCell>
        <mxCell id="qq0QSqFWVWA5eUmxQ3MX-6" value="" style="rounded=0;whiteSpace=wrap;html=1;" vertex="1" parent="1">
          <mxGeometry x="150" y="340" width="260" height="60" as="geometry" />
        </mxCell>
        <mxCell id="qq0QSqFWVWA5eUmxQ3MX-1" value="" style="rounded=0;whiteSpace=wrap;html=1;" vertex="1" parent="1">
          <mxGeometry x="160" y="350" width="40" height="40" as="geometry" />
        </mxCell>
        <mxCell id="qq0QSqFWVWA5eUmxQ3MX-2" value="" style="rounded=0;whiteSpace=wrap;html=1;" vertex="1" parent="1">
          <mxGeometry x="200" y="350" width="40" height="40" as="geometry" />
        </mxCell>
        <mxCell id="qq0QSqFWVWA5eUmxQ3MX-3" value="" style="rounded=0;whiteSpace=wrap;html=1;" vertex="1" parent="1">
          <mxGeometry x="240" y="350" width="40" height="40" as="geometry" />
        </mxCell>
        <mxCell id="qq0QSqFWVWA5eUmxQ3MX-4" value="" style="rounded=0;whiteSpace=wrap;html=1;fillColor=#CCCCCC;" vertex="1" parent="1">
          <mxGeometry x="280" y="350" width="40" height="40" as="geometry" />
        </mxCell>
        <mxCell id="qq0QSqFWVWA5eUmxQ3MX-5" value="" style="rounded=0;whiteSpace=wrap;html=1;" vertex="1" parent="1">
          <mxGeometry x="320" y="350" width="40" height="40" as="geometry" />
        </mxCell>
        <mxCell id="qq0QSqFWVWA5eUmxQ3MX-7" value="" style="endArrow=none;html=1;rounded=0;" edge="1" parent="1">
          <mxGeometry width="50" height="50" relative="1" as="geometry">
            <mxPoint x="400" y="350" as="sourcePoint" />
            <mxPoint x="400" y="390" as="targetPoint" />
            <Array as="points">
              <mxPoint x="360" y="350" />
              <mxPoint x="360" y="390" />
            </Array>
          </mxGeometry>
        </mxCell>
        <mxCell id="qq0QSqFWVWA5eUmxQ3MX-10" style="edgeStyle=orthogonalEdgeStyle;rounded=0;orthogonalLoop=1;jettySize=auto;html=1;exitX=0.5;exitY=1;exitDx=0;exitDy=0;" edge="1" parent="1" source="qq0QSqFWVWA5eUmxQ3MX-9" target="qq0QSqFWVWA5eUmxQ3MX-4">
          <mxGeometry relative="1" as="geometry" />
        </mxCell>
        <mxCell id="qq0QSqFWVWA5eUmxQ3MX-9" value="3" style="ellipse;whiteSpace=wrap;html=1;aspect=fixed;fontSize=14;fontStyle=1" vertex="1" parent="1">
          <mxGeometry x="280" y="290" width="40" height="40" as="geometry" />
        </mxCell>
        <mxCell id="qq0QSqFWVWA5eUmxQ3MX-11" value="long [] row;&lt;br&gt;&lt;br&gt;...&lt;br&gt;&lt;br&gt;row[3];" style="text;html=1;align=left;verticalAlign=middle;whiteSpace=wrap;rounded=0;fontStyle=1;spacingLeft=14;fillColor=default;strokeColor=default;" vertex="1" parent="1">
          <mxGeometry x="160" y="180" width="250" height="70" as="geometry" />
        </mxCell>
        <mxCell id="qq0QSqFWVWA5eUmxQ3MX-32" value="1차원 배열" style="text;html=1;strokeColor=none;fillColor=none;align=center;verticalAlign=middle;whiteSpace=wrap;rounded=0;fontSize=14;fontStyle=1" vertex="1" parent="1">
          <mxGeometry x="160" y="130" width="240" height="30" as="geometry" />
        </mxCell>
      </root>
    </mxGraphModel>
  </diagram>
  <diagram id="xW8K4-486St5XKsXq4UL" name="페이지-4">
    <mxGraphModel dx="440" dy="596" grid="1" gridSize="10" guides="1" tooltips="1" connect="1" arrows="1" fold="1" page="1" pageScale="1" pageWidth="1169" pageHeight="827" math="0" shadow="0">
      <root>
        <mxCell id="0" />
        <mxCell id="1" parent="0" />
        <mxCell id="_R6DZtFbrs-gtUa8lG7S-1" value="" style="rounded=1;whiteSpace=wrap;html=1;fillColor=#f5f5f5;fontColor=#333333;strokeColor=#666666;" vertex="1" parent="1">
          <mxGeometry x="450" y="160" width="450" height="400" as="geometry" />
        </mxCell>
        <mxCell id="_R6DZtFbrs-gtUa8lG7S-2" value="" style="rounded=0;whiteSpace=wrap;html=1;" vertex="1" parent="1">
          <mxGeometry x="510" y="300" width="370" height="60" as="geometry" />
        </mxCell>
        <mxCell id="_R6DZtFbrs-gtUa8lG7S-11" value="long [][] grid;&lt;br&gt;&lt;br&gt;...&lt;br&gt;&lt;br&gt;grid[1][2];" style="text;html=1;align=left;verticalAlign=middle;whiteSpace=wrap;rounded=0;fontStyle=1;spacingLeft=14;fillColor=default;strokeColor=default;" vertex="1" parent="1">
          <mxGeometry x="510" y="180" width="350" height="70" as="geometry" />
        </mxCell>
        <mxCell id="_R6DZtFbrs-gtUa8lG7S-12" value="" style="rounded=0;whiteSpace=wrap;html=1;" vertex="1" parent="1">
          <mxGeometry x="520" y="310" width="40" height="40" as="geometry" />
        </mxCell>
        <mxCell id="_R6DZtFbrs-gtUa8lG7S-13" value="" style="rounded=0;whiteSpace=wrap;html=1;" vertex="1" parent="1">
          <mxGeometry x="520" y="350" width="40" height="40" as="geometry" />
        </mxCell>
        <mxCell id="_R6DZtFbrs-gtUa8lG7S-14" value="" style="rounded=0;whiteSpace=wrap;html=1;" vertex="1" parent="1">
          <mxGeometry x="520" y="430" width="40" height="40" as="geometry" />
        </mxCell>
        <mxCell id="_R6DZtFbrs-gtUa8lG7S-15" value="" style="rounded=0;whiteSpace=wrap;html=1;fillColor=#FFFFFF;" vertex="1" parent="1">
          <mxGeometry x="520" y="390" width="40" height="40" as="geometry" />
        </mxCell>
        <mxCell id="_R6DZtFbrs-gtUa8lG7S-16" value="" style="rounded=0;whiteSpace=wrap;html=1;" vertex="1" parent="1">
          <mxGeometry x="520" y="470" width="40" height="40" as="geometry" />
        </mxCell>
        <mxCell id="_R6DZtFbrs-gtUa8lG7S-17" value="" style="endArrow=none;html=1;rounded=0;" edge="1" parent="1">
          <mxGeometry width="50" height="50" relative="1" as="geometry">
            <mxPoint x="560" y="550" as="sourcePoint" />
            <mxPoint x="520" y="550" as="targetPoint" />
            <Array as="points">
              <mxPoint x="560" y="510" />
              <mxPoint x="520" y="510" />
            </Array>
          </mxGeometry>
        </mxCell>
        <mxCell id="_R6DZtFbrs-gtUa8lG7S-20" value="2차원 배열" style="text;html=1;strokeColor=none;fillColor=none;align=center;verticalAlign=middle;whiteSpace=wrap;rounded=0;fontSize=14;fontStyle=1" vertex="1" parent="1">
          <mxGeometry x="520" y="130" width="280" height="30" as="geometry" />
        </mxCell>
        <mxCell id="KKkfjWMLNw1didltihV_-1" value="" style="rounded=0;whiteSpace=wrap;html=1;" vertex="1" parent="1">
          <mxGeometry x="580" y="310" width="40" height="40" as="geometry" />
        </mxCell>
        <mxCell id="KKkfjWMLNw1didltihV_-2" value="" style="rounded=0;whiteSpace=wrap;html=1;" vertex="1" parent="1">
          <mxGeometry x="580" y="350" width="40" height="40" as="geometry" />
        </mxCell>
        <mxCell id="KKkfjWMLNw1didltihV_-3" value="" style="rounded=0;whiteSpace=wrap;html=1;" vertex="1" parent="1">
          <mxGeometry x="580" y="430" width="40" height="40" as="geometry" />
        </mxCell>
        <mxCell id="KKkfjWMLNw1didltihV_-4" value="" style="rounded=0;whiteSpace=wrap;html=1;fillColor=#CCCCCC;" vertex="1" parent="1">
          <mxGeometry x="580" y="390" width="40" height="40" as="geometry" />
        </mxCell>
        <mxCell id="KKkfjWMLNw1didltihV_-5" value="" style="rounded=0;whiteSpace=wrap;html=1;" vertex="1" parent="1">
          <mxGeometry x="580" y="470" width="40" height="40" as="geometry" />
        </mxCell>
        <mxCell id="KKkfjWMLNw1didltihV_-6" value="" style="endArrow=none;html=1;rounded=0;" edge="1" parent="1">
          <mxGeometry width="50" height="50" relative="1" as="geometry">
            <mxPoint x="620" y="550" as="sourcePoint" />
            <mxPoint x="580" y="550" as="targetPoint" />
            <Array as="points">
              <mxPoint x="620" y="510" />
              <mxPoint x="580" y="510" />
            </Array>
          </mxGeometry>
        </mxCell>
        <mxCell id="KKkfjWMLNw1didltihV_-7" value="" style="rounded=0;whiteSpace=wrap;html=1;" vertex="1" parent="1">
          <mxGeometry x="640" y="310" width="40" height="40" as="geometry" />
        </mxCell>
        <mxCell id="KKkfjWMLNw1didltihV_-8" value="" style="rounded=0;whiteSpace=wrap;html=1;" vertex="1" parent="1">
          <mxGeometry x="640" y="350" width="40" height="40" as="geometry" />
        </mxCell>
        <mxCell id="KKkfjWMLNw1didltihV_-9" value="" style="rounded=0;whiteSpace=wrap;html=1;" vertex="1" parent="1">
          <mxGeometry x="640" y="430" width="40" height="40" as="geometry" />
        </mxCell>
        <mxCell id="KKkfjWMLNw1didltihV_-10" value="" style="rounded=0;whiteSpace=wrap;html=1;fillColor=#FFFFFF;" vertex="1" parent="1">
          <mxGeometry x="640" y="390" width="40" height="40" as="geometry" />
        </mxCell>
        <mxCell id="KKkfjWMLNw1didltihV_-11" value="" style="rounded=0;whiteSpace=wrap;html=1;" vertex="1" parent="1">
          <mxGeometry x="640" y="470" width="40" height="40" as="geometry" />
        </mxCell>
        <mxCell id="KKkfjWMLNw1didltihV_-12" value="" style="endArrow=none;html=1;rounded=0;" edge="1" parent="1">
          <mxGeometry width="50" height="50" relative="1" as="geometry">
            <mxPoint x="680" y="550" as="sourcePoint" />
            <mxPoint x="640" y="550" as="targetPoint" />
            <Array as="points">
              <mxPoint x="680" y="510" />
              <mxPoint x="640" y="510" />
            </Array>
          </mxGeometry>
        </mxCell>
        <mxCell id="KKkfjWMLNw1didltihV_-13" value="" style="rounded=0;whiteSpace=wrap;html=1;" vertex="1" parent="1">
          <mxGeometry x="700" y="310" width="40" height="40" as="geometry" />
        </mxCell>
        <mxCell id="KKkfjWMLNw1didltihV_-14" value="" style="rounded=0;whiteSpace=wrap;html=1;" vertex="1" parent="1">
          <mxGeometry x="700" y="350" width="40" height="40" as="geometry" />
        </mxCell>
        <mxCell id="KKkfjWMLNw1didltihV_-15" value="" style="rounded=0;whiteSpace=wrap;html=1;" vertex="1" parent="1">
          <mxGeometry x="700" y="430" width="40" height="40" as="geometry" />
        </mxCell>
        <mxCell id="KKkfjWMLNw1didltihV_-16" value="" style="rounded=0;whiteSpace=wrap;html=1;fillColor=#FFFFFF;" vertex="1" parent="1">
          <mxGeometry x="700" y="390" width="40" height="40" as="geometry" />
        </mxCell>
        <mxCell id="KKkfjWMLNw1didltihV_-17" value="" style="rounded=0;whiteSpace=wrap;html=1;" vertex="1" parent="1">
          <mxGeometry x="700" y="470" width="40" height="40" as="geometry" />
        </mxCell>
        <mxCell id="KKkfjWMLNw1didltihV_-18" value="" style="endArrow=none;html=1;rounded=0;" edge="1" parent="1">
          <mxGeometry width="50" height="50" relative="1" as="geometry">
            <mxPoint x="740" y="550" as="sourcePoint" />
            <mxPoint x="700" y="550" as="targetPoint" />
            <Array as="points">
              <mxPoint x="740" y="510" />
              <mxPoint x="700" y="510" />
            </Array>
          </mxGeometry>
        </mxCell>
        <mxCell id="KKkfjWMLNw1didltihV_-19" value="" style="rounded=0;whiteSpace=wrap;html=1;" vertex="1" parent="1">
          <mxGeometry x="760" y="310" width="40" height="40" as="geometry" />
        </mxCell>
        <mxCell id="KKkfjWMLNw1didltihV_-20" value="" style="rounded=0;whiteSpace=wrap;html=1;" vertex="1" parent="1">
          <mxGeometry x="760" y="350" width="40" height="40" as="geometry" />
        </mxCell>
        <mxCell id="KKkfjWMLNw1didltihV_-21" value="" style="rounded=0;whiteSpace=wrap;html=1;" vertex="1" parent="1">
          <mxGeometry x="760" y="430" width="40" height="40" as="geometry" />
        </mxCell>
        <mxCell id="KKkfjWMLNw1didltihV_-22" value="" style="rounded=0;whiteSpace=wrap;html=1;fillColor=#FFFFFF;" vertex="1" parent="1">
          <mxGeometry x="760" y="390" width="40" height="40" as="geometry" />
        </mxCell>
        <mxCell id="KKkfjWMLNw1didltihV_-23" value="" style="rounded=0;whiteSpace=wrap;html=1;" vertex="1" parent="1">
          <mxGeometry x="760" y="470" width="40" height="40" as="geometry" />
        </mxCell>
        <mxCell id="KKkfjWMLNw1didltihV_-24" value="" style="endArrow=none;html=1;rounded=0;" edge="1" parent="1">
          <mxGeometry width="50" height="50" relative="1" as="geometry">
            <mxPoint x="800" y="550" as="sourcePoint" />
            <mxPoint x="760" y="550" as="targetPoint" />
            <Array as="points">
              <mxPoint x="800" y="510" />
              <mxPoint x="760" y="510" />
            </Array>
          </mxGeometry>
        </mxCell>
        <mxCell id="eLwq7QI-Z7LqMH_UNP_v-2" style="edgeStyle=orthogonalEdgeStyle;rounded=0;orthogonalLoop=1;jettySize=auto;html=1;exitX=0.5;exitY=1;exitDx=0;exitDy=0;entryX=0.5;entryY=0;entryDx=0;entryDy=0;" edge="1" parent="1" source="eLwq7QI-Z7LqMH_UNP_v-1">
          <mxGeometry relative="1" as="geometry">
            <mxPoint x="600" y="310" as="targetPoint" />
          </mxGeometry>
        </mxCell>
        <mxCell id="eLwq7QI-Z7LqMH_UNP_v-1" value="1" style="ellipse;whiteSpace=wrap;html=1;aspect=fixed;fontSize=14;fontStyle=1" vertex="1" parent="1">
          <mxGeometry x="580" y="250" width="40" height="40" as="geometry" />
        </mxCell>
        <mxCell id="eLwq7QI-Z7LqMH_UNP_v-3" value="" style="endArrow=none;html=1;rounded=0;entryX=0.919;entryY=0.833;entryDx=0;entryDy=0;entryPerimeter=0;" edge="1" parent="1" target="_R6DZtFbrs-gtUa8lG7S-2">
          <mxGeometry width="50" height="50" relative="1" as="geometry">
            <mxPoint x="850" y="310" as="sourcePoint" />
            <mxPoint x="810" y="310" as="targetPoint" />
            <Array as="points">
              <mxPoint x="810" y="310" />
              <mxPoint x="810" y="350" />
            </Array>
          </mxGeometry>
        </mxCell>
        <mxCell id="eLwq7QI-Z7LqMH_UNP_v-5" style="edgeStyle=orthogonalEdgeStyle;rounded=0;orthogonalLoop=1;jettySize=auto;html=1;exitX=1;exitY=0.5;exitDx=0;exitDy=0;entryX=0;entryY=0.5;entryDx=0;entryDy=0;" edge="1" parent="1" source="eLwq7QI-Z7LqMH_UNP_v-4" target="KKkfjWMLNw1didltihV_-4">
          <mxGeometry relative="1" as="geometry" />
        </mxCell>
        <mxCell id="eLwq7QI-Z7LqMH_UNP_v-4" value="2" style="ellipse;whiteSpace=wrap;html=1;aspect=fixed;fontSize=14;fontStyle=1" vertex="1" parent="1">
          <mxGeometry x="470" y="390" width="40" height="40" as="geometry" />
        </mxCell>
      </root>
    </mxGraphModel>
  </diagram>
  <diagram id="zZjeBgMdH3oGEEDDFT94" name="페이지-5">
    <mxGraphModel dx="845" dy="596" grid="1" gridSize="10" guides="1" tooltips="1" connect="1" arrows="1" fold="1" page="1" pageScale="1" pageWidth="1169" pageHeight="827" math="0" shadow="0">
      <root>
        <mxCell id="0" />
        <mxCell id="1" parent="0" />
        <mxCell id="4YDEjqhsAKLqNOnOUPRN-22" value="" style="rounded=1;whiteSpace=wrap;html=1;fillColor=#CCCCCC;" vertex="1" parent="1">
          <mxGeometry x="360" y="120" width="520" height="240" as="geometry" />
        </mxCell>
        <mxCell id="4YDEjqhsAKLqNOnOUPRN-1" value="" style="rounded=0;whiteSpace=wrap;html=1;" vertex="1" parent="1">
          <mxGeometry x="560" y="200" width="40" height="40" as="geometry" />
        </mxCell>
        <mxCell id="4YDEjqhsAKLqNOnOUPRN-2" value="row" style="text;html=1;strokeColor=none;fillColor=none;align=center;verticalAlign=middle;whiteSpace=wrap;rounded=0;" vertex="1" parent="1">
          <mxGeometry x="560" y="180" width="40" height="20" as="geometry" />
        </mxCell>
        <mxCell id="4YDEjqhsAKLqNOnOUPRN-4" value="" style="rounded=0;whiteSpace=wrap;html=1;" vertex="1" parent="1">
          <mxGeometry x="560" y="280" width="40" height="40" as="geometry" />
        </mxCell>
        <mxCell id="4YDEjqhsAKLqNOnOUPRN-5" value="copy" style="text;html=1;strokeColor=none;fillColor=none;align=center;verticalAlign=middle;whiteSpace=wrap;rounded=0;" vertex="1" parent="1">
          <mxGeometry x="560" y="260" width="40" height="20" as="geometry" />
        </mxCell>
        <mxCell id="4YDEjqhsAKLqNOnOUPRN-7" value="1" style="rounded=0;whiteSpace=wrap;html=1;" vertex="1" parent="1">
          <mxGeometry x="680" y="200" width="40" height="40" as="geometry" />
        </mxCell>
        <mxCell id="4YDEjqhsAKLqNOnOUPRN-8" value="2" style="rounded=0;whiteSpace=wrap;html=1;" vertex="1" parent="1">
          <mxGeometry x="720" y="200" width="40" height="40" as="geometry" />
        </mxCell>
        <mxCell id="4YDEjqhsAKLqNOnOUPRN-9" value="3" style="rounded=0;whiteSpace=wrap;html=1;" vertex="1" parent="1">
          <mxGeometry x="760" y="200" width="40" height="40" as="geometry" />
        </mxCell>
        <mxCell id="4YDEjqhsAKLqNOnOUPRN-10" value="4" style="rounded=0;whiteSpace=wrap;html=1;" vertex="1" parent="1">
          <mxGeometry x="800" y="200" width="40" height="40" as="geometry" />
        </mxCell>
        <mxCell id="4YDEjqhsAKLqNOnOUPRN-13" style="edgeStyle=orthogonalEdgeStyle;rounded=0;orthogonalLoop=1;jettySize=auto;html=1;exitX=1;exitY=0.5;exitDx=0;exitDy=0;" edge="1" parent="1" source="4YDEjqhsAKLqNOnOUPRN-11" target="4YDEjqhsAKLqNOnOUPRN-7">
          <mxGeometry relative="1" as="geometry" />
        </mxCell>
        <mxCell id="4YDEjqhsAKLqNOnOUPRN-11" value="" style="ellipse;whiteSpace=wrap;html=1;aspect=fixed;fillColor=#647687;fontColor=#ffffff;strokeColor=#314354;" vertex="1" parent="1">
          <mxGeometry x="575" y="215" width="10" height="10" as="geometry" />
        </mxCell>
        <mxCell id="4YDEjqhsAKLqNOnOUPRN-12" value="" style="ellipse;whiteSpace=wrap;html=1;aspect=fixed;fillColor=#647687;fontColor=#ffffff;strokeColor=#314354;" vertex="1" parent="1">
          <mxGeometry x="575" y="295" width="10" height="10" as="geometry" />
        </mxCell>
        <mxCell id="4YDEjqhsAKLqNOnOUPRN-15" value="" style="endArrow=classic;html=1;rounded=0;exitX=1;exitY=0;exitDx=0;exitDy=0;" edge="1" parent="1" source="4YDEjqhsAKLqNOnOUPRN-12">
          <mxGeometry width="50" height="50" relative="1" as="geometry">
            <mxPoint x="630" y="270" as="sourcePoint" />
            <mxPoint x="680" y="220" as="targetPoint" />
          </mxGeometry>
        </mxCell>
        <mxCell id="4YDEjqhsAKLqNOnOUPRN-16" value="" style="rounded=1;whiteSpace=wrap;html=1;fillColor=none;dashed=1;" vertex="1" parent="1">
          <mxGeometry x="540" y="170" width="80" height="170" as="geometry" />
        </mxCell>
        <mxCell id="4YDEjqhsAKLqNOnOUPRN-17" value="" style="rounded=1;whiteSpace=wrap;html=1;fillColor=none;dashed=1;" vertex="1" parent="1">
          <mxGeometry x="660" y="170" width="200" height="100" as="geometry" />
        </mxCell>
        <mxCell id="4YDEjqhsAKLqNOnOUPRN-18" value="variable" style="text;html=1;strokeColor=none;fillColor=none;align=center;verticalAlign=middle;whiteSpace=wrap;rounded=0;" vertex="1" parent="1">
          <mxGeometry x="550" y="140" width="60" height="30" as="geometry" />
        </mxCell>
        <mxCell id="4YDEjqhsAKLqNOnOUPRN-19" value="instance" style="text;html=1;strokeColor=none;fillColor=none;align=center;verticalAlign=middle;whiteSpace=wrap;rounded=0;" vertex="1" parent="1">
          <mxGeometry x="730" y="140" width="60" height="30" as="geometry" />
        </mxCell>
        <mxCell id="4YDEjqhsAKLqNOnOUPRN-21" value="int[] row = {1, 2, 3, 4};&lt;br&gt;&lt;div style=&quot;&quot;&gt;&lt;span style=&quot;background-color: initial;&quot;&gt;int [] copy = row;&lt;/span&gt;&lt;/div&gt;&lt;div style=&quot;&quot;&gt;&lt;span style=&quot;background-color: initial;&quot;&gt;...&lt;/span&gt;&lt;/div&gt;&lt;div style=&quot;&quot;&gt;&lt;span style=&quot;background-color: initial;&quot;&gt;row[0]++;&lt;/span&gt;&lt;/div&gt;&lt;div style=&quot;&quot;&gt;&lt;span style=&quot;background-color: initial;&quot;&gt;System.out.println(copy[0]);&lt;/span&gt;&lt;/div&gt;" style="rounded=0;whiteSpace=wrap;html=1;align=left;spacingLeft=10;" vertex="1" parent="1">
          <mxGeometry x="340" y="185" width="180" height="120" as="geometry" />
        </mxCell>
      </root>
    </mxGraphModel>
  </diagram>
  <diagram id="2lbwLPCAhPIQ0ojesFi-" name="페이지-6">
    <mxGraphModel dx="869" dy="614" grid="1" gridSize="10" guides="1" tooltips="1" connect="1" arrows="1" fold="1" page="1" pageScale="1" pageWidth="1169" pageHeight="827" math="0" shadow="0">
      <root>
        <mxCell id="0" />
        <mxCell id="1" parent="0" />
        <mxCell id="K5LG0wKOFczyobrWBzNZ-1" value="" style="rounded=1;whiteSpace=wrap;html=1;fillColor=#CCCCCC;" vertex="1" parent="1">
          <mxGeometry x="320" y="130" width="650" height="240" as="geometry" />
        </mxCell>
        <mxCell id="K5LG0wKOFczyobrWBzNZ-2" value="" style="rounded=0;whiteSpace=wrap;html=1;" vertex="1" parent="1">
          <mxGeometry x="560" y="200" width="40" height="40" as="geometry" />
        </mxCell>
        <mxCell id="K5LG0wKOFczyobrWBzNZ-3" value="src" style="text;html=1;strokeColor=none;fillColor=none;align=center;verticalAlign=middle;whiteSpace=wrap;rounded=0;" vertex="1" parent="1">
          <mxGeometry x="560" y="180" width="40" height="20" as="geometry" />
        </mxCell>
        <mxCell id="K5LG0wKOFczyobrWBzNZ-4" value="" style="rounded=0;whiteSpace=wrap;html=1;" vertex="1" parent="1">
          <mxGeometry x="560" y="280" width="40" height="40" as="geometry" />
        </mxCell>
        <mxCell id="K5LG0wKOFczyobrWBzNZ-5" value="dest" style="text;html=1;strokeColor=none;fillColor=none;align=center;verticalAlign=middle;whiteSpace=wrap;rounded=0;" vertex="1" parent="1">
          <mxGeometry x="560" y="260" width="40" height="20" as="geometry" />
        </mxCell>
        <mxCell id="K5LG0wKOFczyobrWBzNZ-6" value="1" style="rounded=0;whiteSpace=wrap;html=1;" vertex="1" parent="1">
          <mxGeometry x="650" y="200" width="40" height="40" as="geometry" />
        </mxCell>
        <mxCell id="K5LG0wKOFczyobrWBzNZ-7" value="2" style="rounded=0;whiteSpace=wrap;html=1;" vertex="1" parent="1">
          <mxGeometry x="690" y="200" width="40" height="40" as="geometry" />
        </mxCell>
        <mxCell id="K5LG0wKOFczyobrWBzNZ-8" value="3" style="rounded=0;whiteSpace=wrap;html=1;" vertex="1" parent="1">
          <mxGeometry x="730" y="200" width="40" height="40" as="geometry" />
        </mxCell>
        <mxCell id="K5LG0wKOFczyobrWBzNZ-9" value="4" style="rounded=0;whiteSpace=wrap;html=1;" vertex="1" parent="1">
          <mxGeometry x="770" y="200" width="40" height="40" as="geometry" />
        </mxCell>
        <mxCell id="K5LG0wKOFczyobrWBzNZ-10" style="edgeStyle=orthogonalEdgeStyle;rounded=0;orthogonalLoop=1;jettySize=auto;html=1;exitX=1;exitY=0.5;exitDx=0;exitDy=0;" edge="1" parent="1" source="K5LG0wKOFczyobrWBzNZ-11" target="K5LG0wKOFczyobrWBzNZ-6">
          <mxGeometry relative="1" as="geometry" />
        </mxCell>
        <mxCell id="K5LG0wKOFczyobrWBzNZ-11" value="" style="ellipse;whiteSpace=wrap;html=1;aspect=fixed;fillColor=#647687;fontColor=#ffffff;strokeColor=#314354;" vertex="1" parent="1">
          <mxGeometry x="575" y="215" width="10" height="10" as="geometry" />
        </mxCell>
        <mxCell id="K5LG0wKOFczyobrWBzNZ-23" style="edgeStyle=orthogonalEdgeStyle;rounded=0;orthogonalLoop=1;jettySize=auto;html=1;exitX=1;exitY=0.5;exitDx=0;exitDy=0;entryX=0;entryY=0.5;entryDx=0;entryDy=0;" edge="1" parent="1" source="K5LG0wKOFczyobrWBzNZ-12" target="K5LG0wKOFczyobrWBzNZ-19">
          <mxGeometry relative="1" as="geometry" />
        </mxCell>
        <mxCell id="K5LG0wKOFczyobrWBzNZ-12" value="" style="ellipse;whiteSpace=wrap;html=1;aspect=fixed;fillColor=#647687;fontColor=#ffffff;strokeColor=#314354;" vertex="1" parent="1">
          <mxGeometry x="575" y="295" width="10" height="10" as="geometry" />
        </mxCell>
        <mxCell id="K5LG0wKOFczyobrWBzNZ-14" value="" style="rounded=1;whiteSpace=wrap;html=1;fillColor=none;dashed=1;" vertex="1" parent="1">
          <mxGeometry x="540" y="170" width="80" height="170" as="geometry" />
        </mxCell>
        <mxCell id="K5LG0wKOFczyobrWBzNZ-15" value="" style="rounded=1;whiteSpace=wrap;html=1;fillColor=none;dashed=1;" vertex="1" parent="1">
          <mxGeometry x="630" y="170" width="320" height="170" as="geometry" />
        </mxCell>
        <mxCell id="K5LG0wKOFczyobrWBzNZ-16" value="variable" style="text;html=1;strokeColor=none;fillColor=none;align=center;verticalAlign=middle;whiteSpace=wrap;rounded=0;" vertex="1" parent="1">
          <mxGeometry x="550" y="140" width="60" height="30" as="geometry" />
        </mxCell>
        <mxCell id="K5LG0wKOFczyobrWBzNZ-17" value="instance" style="text;html=1;strokeColor=none;fillColor=none;align=center;verticalAlign=middle;whiteSpace=wrap;rounded=0;" vertex="1" parent="1">
          <mxGeometry x="690" y="140" width="60" height="30" as="geometry" />
        </mxCell>
        <mxCell id="K5LG0wKOFczyobrWBzNZ-18" value="int[] src = {1, 2, 3, 4, 5, 6, 7};&lt;br&gt;&lt;div style=&quot;&quot;&gt;&lt;span style=&quot;background-color: initial;&quot;&gt;int [] dest =&amp;nbsp; new int[4];&lt;/span&gt;&lt;/div&gt;&lt;div style=&quot;&quot;&gt;&lt;span style=&quot;background-color: initial;&quot;&gt;...&lt;/span&gt;&lt;/div&gt;&lt;div style=&quot;&quot;&gt;&lt;span style=&quot;background-color: initial;&quot;&gt;System.copyarray(src, 2, dest, 0, 4);&lt;br&gt;&lt;/span&gt;&lt;/div&gt;" style="rounded=0;whiteSpace=wrap;html=1;align=left;spacingLeft=10;" vertex="1" parent="1">
          <mxGeometry x="280" y="220" width="240" height="80" as="geometry" />
        </mxCell>
        <mxCell id="K5LG0wKOFczyobrWBzNZ-19" value="3" style="rounded=0;whiteSpace=wrap;html=1;" vertex="1" parent="1">
          <mxGeometry x="650" y="280" width="40" height="40" as="geometry" />
        </mxCell>
        <mxCell id="K5LG0wKOFczyobrWBzNZ-20" value="4" style="rounded=0;whiteSpace=wrap;html=1;" vertex="1" parent="1">
          <mxGeometry x="690" y="280" width="40" height="40" as="geometry" />
        </mxCell>
        <mxCell id="K5LG0wKOFczyobrWBzNZ-21" value="5" style="rounded=0;whiteSpace=wrap;html=1;" vertex="1" parent="1">
          <mxGeometry x="730" y="280" width="40" height="40" as="geometry" />
        </mxCell>
        <mxCell id="K5LG0wKOFczyobrWBzNZ-22" value="6" style="rounded=0;whiteSpace=wrap;html=1;" vertex="1" parent="1">
          <mxGeometry x="770" y="280" width="40" height="40" as="geometry" />
        </mxCell>
        <mxCell id="K5LG0wKOFczyobrWBzNZ-24" value="5" style="rounded=0;whiteSpace=wrap;html=1;" vertex="1" parent="1">
          <mxGeometry x="810" y="200" width="40" height="40" as="geometry" />
        </mxCell>
        <mxCell id="K5LG0wKOFczyobrWBzNZ-25" value="6" style="rounded=0;whiteSpace=wrap;html=1;" vertex="1" parent="1">
          <mxGeometry x="850" y="200" width="40" height="40" as="geometry" />
        </mxCell>
        <mxCell id="K5LG0wKOFczyobrWBzNZ-26" value="7" style="rounded=0;whiteSpace=wrap;html=1;" vertex="1" parent="1">
          <mxGeometry x="890" y="200" width="40" height="40" as="geometry" />
        </mxCell>
        <mxCell id="K5LG0wKOFczyobrWBzNZ-28" value="" style="endArrow=classic;html=1;rounded=0;exitX=0.5;exitY=1;exitDx=0;exitDy=0;entryX=0.5;entryY=0;entryDx=0;entryDy=0;" edge="1" parent="1" source="K5LG0wKOFczyobrWBzNZ-8" target="K5LG0wKOFczyobrWBzNZ-19">
          <mxGeometry width="50" height="50" relative="1" as="geometry">
            <mxPoint x="800" y="170" as="sourcePoint" />
            <mxPoint x="850" y="120" as="targetPoint" />
          </mxGeometry>
        </mxCell>
        <mxCell id="K5LG0wKOFczyobrWBzNZ-29" value="" style="endArrow=classic;html=1;rounded=0;exitX=0.5;exitY=1;exitDx=0;exitDy=0;entryX=0.5;entryY=0;entryDx=0;entryDy=0;" edge="1" parent="1" target="K5LG0wKOFczyobrWBzNZ-20">
          <mxGeometry width="50" height="50" relative="1" as="geometry">
            <mxPoint x="789.71" y="240" as="sourcePoint" />
            <mxPoint x="789.71" y="280" as="targetPoint" />
          </mxGeometry>
        </mxCell>
        <mxCell id="K5LG0wKOFczyobrWBzNZ-30" value="" style="endArrow=classic;html=1;rounded=0;exitX=0.5;exitY=1;exitDx=0;exitDy=0;entryX=0.5;entryY=0;entryDx=0;entryDy=0;" edge="1" parent="1" target="K5LG0wKOFczyobrWBzNZ-21">
          <mxGeometry width="50" height="50" relative="1" as="geometry">
            <mxPoint x="829.71" y="240" as="sourcePoint" />
            <mxPoint x="830" y="280" as="targetPoint" />
          </mxGeometry>
        </mxCell>
        <mxCell id="K5LG0wKOFczyobrWBzNZ-31" value="" style="endArrow=classic;html=1;rounded=0;exitX=0.5;exitY=1;exitDx=0;exitDy=0;entryX=0.5;entryY=0;entryDx=0;entryDy=0;" edge="1" parent="1" target="K5LG0wKOFczyobrWBzNZ-22">
          <mxGeometry width="50" height="50" relative="1" as="geometry">
            <mxPoint x="869.71" y="240" as="sourcePoint" />
            <mxPoint x="870" y="280" as="targetPoint" />
          </mxGeometry>
        </mxCell>
      </root>
    </mxGraphModel>
  </diagram>
</mxfile>
